<svg width="32" height="32" viewBox="0 0 32 32" fill="none" xmlns="http://www.w3.org/2000/svg">
<path d="M6.42428 7.22L3.35428 8.83C2.99428 9.02 2.92428 9.51 3.22428 9.8L5.83428 12.27L6.42428 7.22Z" fill="url(#paint0_radial_346_445)"/>
<path d="M6.42428 7.22L3.35428 8.83C2.99428 9.02 2.92428 9.51 3.22428 9.8L5.83428 12.27L6.42428 7.22Z" fill="url(#paint1_radial_346_445)"/>
<path d="M13.5344 28.5H11.8144L13.0144 22.5H11.5144L10.3144 28.5H8.51443C7.78443 28.5 7.18443 29.02 7.04443 29.71C7.00443 29.86 7.13443 30 7.28443 30H14.7544C14.9144 30 15.0344 29.86 15.0044 29.71C14.8644 29.02 14.2644 28.5 13.5344 28.5Z" fill="url(#paint2_linear_346_445)"/>
<path d="M13.5344 28.5H11.8144L13.0144 22.5H11.5144L10.3144 28.5H8.51443C7.78443 28.5 7.18443 29.02 7.04443 29.71C7.00443 29.86 7.13443 30 7.28443 30H14.7544C14.9144 30 15.0344 29.86 15.0044 29.71C14.8644 29.02 14.2644 28.5 13.5344 28.5Z" fill="url(#paint3_linear_346_445)"/>
<path d="M13.5344 28.5H11.8144L13.0144 22.5H11.5144L10.3144 28.5H8.51443C7.78443 28.5 7.18443 29.02 7.04443 29.71C7.00443 29.86 7.13443 30 7.28443 30H14.7544C14.9144 30 15.0344 29.86 15.0044 29.71C14.8644 29.02 14.2644 28.5 13.5344 28.5Z" fill="url(#paint4_radial_346_445)"/>
<path d="M13.5344 28.5H11.8144L13.0144 22.5H11.5144L10.3144 28.5H8.51443C7.78443 28.5 7.18443 29.02 7.04443 29.71C7.00443 29.86 7.13443 30 7.28443 30H14.7544C14.9144 30 15.0344 29.86 15.0044 29.71C14.8644 29.02 14.2644 28.5 13.5344 28.5Z" fill="url(#paint5_linear_346_445)"/>
<g filter="url(#filter0_f_346_445)">
<path d="M7.86426 29.578H12.5363" stroke="url(#paint6_linear_346_445)" stroke-opacity="0.75" stroke-width="0.25"/>
</g>
<path d="M18.5944 28.5H16.8144L18.0144 22.5H16.5144L15.3144 28.5H13.5144C12.7844 28.5 12.1844 29.02 12.0444 29.71C12.0044 29.86 12.1344 30 12.2844 30H19.8144C19.9744 30 20.0944 29.86 20.0644 29.71C19.9956 29.3702 19.8119 29.0645 19.5442 28.8441C19.2765 28.6238 18.9411 28.5023 18.5944 28.5Z" fill="url(#paint7_linear_346_445)"/>
<path d="M18.5944 28.5H16.8144L18.0144 22.5H16.5144L15.3144 28.5H13.5144C12.7844 28.5 12.1844 29.02 12.0444 29.71C12.0044 29.86 12.1344 30 12.2844 30H19.8144C19.9744 30 20.0944 29.86 20.0644 29.71C19.9956 29.3702 19.8119 29.0645 19.5442 28.8441C19.2765 28.6238 18.9411 28.5023 18.5944 28.5Z" fill="url(#paint8_linear_346_445)"/>
<path d="M18.5944 28.5H16.8144L18.0144 22.5H16.5144L15.3144 28.5H13.5144C12.7844 28.5 12.1844 29.02 12.0444 29.71C12.0044 29.86 12.1344 30 12.2844 30H19.8144C19.9744 30 20.0944 29.86 20.0644 29.71C19.9956 29.3702 19.8119 29.0645 19.5442 28.8441C19.2765 28.6238 18.9411 28.5023 18.5944 28.5Z" fill="url(#paint9_linear_346_445)"/>
<path d="M18.5944 28.5H16.8144L18.0144 22.5H16.5144L15.3144 28.5H13.5144C12.7844 28.5 12.1844 29.02 12.0444 29.71C12.0044 29.86 12.1344 30 12.2844 30H19.8144C19.9744 30 20.0944 29.86 20.0644 29.71C19.9956 29.3702 19.8119 29.0645 19.5442 28.8441C19.2765 28.6238 18.9411 28.5023 18.5944 28.5Z" fill="url(#paint10_radial_346_445)"/>
<g filter="url(#filter1_f_346_445)">
<path d="M12.708 29.578H19.568" stroke="url(#paint11_linear_346_445)" stroke-opacity="0.75" stroke-width="0.25"/>
</g>
<path d="M17.3242 25L17.4642 19.77L28.8442 14.47C28.9541 14.4193 29.075 14.3969 29.1957 14.4048C29.3165 14.4127 29.4334 14.4507 29.5357 14.5153C29.6381 14.5799 29.7227 14.669 29.7818 14.7747C29.8409 14.8803 29.8727 14.999 29.8742 15.12V24.27C29.8742 24.67 29.5542 24.99 29.1542 24.99H17.3242V25Z" fill="url(#paint12_linear_346_445)"/>
<path d="M17.3242 25L17.4642 19.77L28.8442 14.47C28.9541 14.4193 29.075 14.3969 29.1957 14.4048C29.3165 14.4127 29.4334 14.4507 29.5357 14.5153C29.6381 14.5799 29.7227 14.669 29.7818 14.7747C29.8409 14.8803 29.8727 14.999 29.8742 15.12V24.27C29.8742 24.67 29.5542 24.99 29.1542 24.99H17.3242V25Z" fill="url(#paint13_linear_346_445)"/>
<path d="M17.3242 25L17.4642 19.77L28.8442 14.47C28.9541 14.4193 29.075 14.3969 29.1957 14.4048C29.3165 14.4127 29.4334 14.4507 29.5357 14.5153C29.6381 14.5799 29.7227 14.669 29.7818 14.7747C29.8409 14.8803 29.8727 14.999 29.8742 15.12V24.27C29.8742 24.67 29.5542 24.99 29.1542 24.99H17.3242V25Z" fill="url(#paint14_linear_346_445)"/>
<path d="M17.6038 6.22C17.4738 5.8 17.3038 5.4 17.0838 5.03H17.7038C18.9938 5.03 20.0338 3.99 20.0338 2.7C20.0338 2.32 19.7138 2 19.3338 2H11.8738C8.69383 2 6.09383 4.48 5.88383 7.61L4.59384 18.79C4.21384 22.1 6.79383 25 10.1238 25H23.8738L17.6038 6.22Z" fill="url(#paint15_linear_346_445)"/>
<path d="M17.6038 6.22C17.4738 5.8 17.3038 5.4 17.0838 5.03H17.7038C18.9938 5.03 20.0338 3.99 20.0338 2.7C20.0338 2.32 19.7138 2 19.3338 2H11.8738C8.69383 2 6.09383 4.48 5.88383 7.61L4.59384 18.79C4.21384 22.1 6.79383 25 10.1238 25H23.8738L17.6038 6.22Z" fill="url(#paint16_linear_346_445)"/>
<path d="M17.6038 6.22C17.4738 5.8 17.3038 5.4 17.0838 5.03H17.7038C18.9938 5.03 20.0338 3.99 20.0338 2.7C20.0338 2.32 19.7138 2 19.3338 2H11.8738C8.69383 2 6.09383 4.48 5.88383 7.61L4.59384 18.79C4.21384 22.1 6.79383 25 10.1238 25H23.8738L17.6038 6.22Z" fill="url(#paint17_radial_346_445)"/>
<path d="M17.6038 6.22C17.4738 5.8 17.3038 5.4 17.0838 5.03H17.7038C18.9938 5.03 20.0338 3.99 20.0338 2.7C20.0338 2.32 19.7138 2 19.3338 2H11.8738C8.69383 2 6.09383 4.48 5.88383 7.61L4.59384 18.79C4.21384 22.1 6.79383 25 10.1238 25H23.8738L17.6038 6.22Z" fill="url(#paint18_linear_346_445)"/>
<path d="M17.6038 6.22C17.4738 5.8 17.3038 5.4 17.0838 5.03H17.7038C18.9938 5.03 20.0338 3.99 20.0338 2.7C20.0338 2.32 19.7138 2 19.3338 2H11.8738C8.69383 2 6.09383 4.48 5.88383 7.61L4.59384 18.79C4.21384 22.1 6.79383 25 10.1238 25H23.8738L17.6038 6.22Z" fill="url(#paint19_radial_346_445)"/>
<path d="M13.2139 11V17.93C13.2139 19.8051 13.9587 21.6034 15.2846 22.9292C16.6105 24.2551 18.4088 25 20.2839 25H23.8739L19.2039 11H13.2139Z" fill="url(#paint20_linear_346_445)"/>
<path d="M10.0381 9.02301C10.1707 9.02301 10.2979 8.97033 10.3916 8.87656C10.4854 8.7828 10.5381 8.65562 10.5381 8.52301C10.5381 8.3904 10.4854 8.26323 10.3916 8.16946C10.2979 8.07569 10.1707 8.02301 10.0381 8.02301C9.90548 8.02301 9.7783 8.07569 9.68453 8.16946C9.59076 8.26323 9.53809 8.3904 9.53809 8.52301C9.53809 8.65562 9.59076 8.7828 9.68453 8.87656C9.7783 8.97033 9.90548 9.02301 10.0381 9.02301Z" fill="url(#paint21_radial_346_445)"/>
<path d="M10.0381 9.02301C10.1707 9.02301 10.2979 8.97033 10.3916 8.87656C10.4854 8.7828 10.5381 8.65562 10.5381 8.52301C10.5381 8.3904 10.4854 8.26323 10.3916 8.16946C10.2979 8.07569 10.1707 8.02301 10.0381 8.02301C9.90548 8.02301 9.7783 8.07569 9.68453 8.16946C9.59076 8.26323 9.53809 8.3904 9.53809 8.52301C9.53809 8.65562 9.59076 8.7828 9.68453 8.87656C9.7783 8.97033 9.90548 9.02301 10.0381 9.02301Z" fill="url(#paint22_radial_346_445)"/>
<path d="M10.0381 9.02301C10.1707 9.02301 10.2979 8.97033 10.3916 8.87656C10.4854 8.7828 10.5381 8.65562 10.5381 8.52301C10.5381 8.3904 10.4854 8.26323 10.3916 8.16946C10.2979 8.07569 10.1707 8.02301 10.0381 8.02301C9.90548 8.02301 9.7783 8.07569 9.68453 8.16946C9.59076 8.26323 9.53809 8.3904 9.53809 8.52301C9.53809 8.65562 9.59076 8.7828 9.68453 8.87656C9.7783 8.97033 9.90548 9.02301 10.0381 9.02301Z" fill="url(#paint23_linear_346_445)"/>
<g filter="url(#filter2_f_346_445)">
<path d="M14.5991 18.767L12.9141 6.18701H16.4741L22.4421 22.84C22.4711 22.9212 22.4786 23.0086 22.4639 23.0936C22.4492 23.1786 22.4127 23.2583 22.358 23.3251C22.3034 23.3918 22.2324 23.4432 22.152 23.4744C22.0715 23.5056 21.9844 23.5155 21.8991 23.503L18.8251 23.05C17.7512 22.8916 16.7581 22.388 15.9957 21.6153C15.2333 20.8427 14.7431 19.8429 14.5991 18.767Z" fill="url(#paint24_linear_346_445)"/>
</g>
<g filter="url(#filter3_f_346_445)">
<path d="M17.0674 4.48401C17.6384 4.50401 18.9974 4.43101 19.4274 3.15601" stroke="url(#paint25_linear_346_445)" stroke-width="0.25"/>
</g>
<path fill-rule="evenodd" clip-rule="evenodd" d="M17.0844 5.03001C17.3044 5.40001 17.4744 5.80001 17.6044 6.22001L18.1404 7.82301L13.8604 5.02701H17.7044L17.7054 5.03001H17.0844Z" fill="url(#paint26_linear_346_445)"/>
<g filter="url(#filter4_f_346_445)">
<path d="M29.3643 15.063V23.969" stroke="url(#paint27_linear_346_445)" stroke-width="0.4" stroke-linecap="round"/>
</g>
<defs>
<filter id="filter0_f_346_445" x="7.61426" y="29.203" width="5.17188" height="0.75" filterUnits="userSpaceOnUse" color-interpolation-filters="sRGB">
<feFlood flood-opacity="0" result="BackgroundImageFix"/>
<feBlend mode="normal" in="SourceGraphic" in2="BackgroundImageFix" result="shape"/>
<feGaussianBlur stdDeviation="0.125" result="effect1_foregroundBlur_346_445"/>
</filter>
<filter id="filter1_f_346_445" x="12.458" y="29.203" width="7.36035" height="0.75" filterUnits="userSpaceOnUse" color-interpolation-filters="sRGB">
<feFlood flood-opacity="0" result="BackgroundImageFix"/>
<feBlend mode="normal" in="SourceGraphic" in2="BackgroundImageFix" result="shape"/>
<feGaussianBlur stdDeviation="0.125" result="effect1_foregroundBlur_346_445"/>
</filter>
<filter id="filter2_f_346_445" x="10.9141" y="4.18701" width="13.5576" height="21.3212" filterUnits="userSpaceOnUse" color-interpolation-filters="sRGB">
<feFlood flood-opacity="0" result="BackgroundImageFix"/>
<feBlend mode="normal" in="SourceGraphic" in2="BackgroundImageFix" result="shape"/>
<feGaussianBlur stdDeviation="1" result="effect1_foregroundBlur_346_445"/>
</filter>
<filter id="filter3_f_346_445" x="16.5635" y="2.61606" width="3.48242" height="2.49542" filterUnits="userSpaceOnUse" color-interpolation-filters="sRGB">
<feFlood flood-opacity="0" result="BackgroundImageFix"/>
<feBlend mode="normal" in="SourceGraphic" in2="BackgroundImageFix" result="shape"/>
<feGaussianBlur stdDeviation="0.25" result="effect1_foregroundBlur_346_445"/>
</filter>
<filter id="filter4_f_346_445" x="28.7641" y="14.463" width="1.20039" height="10.106" filterUnits="userSpaceOnUse" color-interpolation-filters="sRGB">
<feFlood flood-opacity="0" result="BackgroundImageFix"/>
<feBlend mode="normal" in="SourceGraphic" in2="BackgroundImageFix" result="shape"/>
<feGaussianBlur stdDeviation="0.2" result="effect1_foregroundBlur_346_445"/>
</filter>
<radialGradient id="paint0_radial_346_445" cx="0" cy="0" r="1" gradientUnits="userSpaceOnUse" gradientTransform="translate(3.72428 9.469) scale(7.25 4.46875)">
<stop stop-color="#EDB134"/>
<stop offset="1" stop-color="#BE8244"/>
</radialGradient>
<radialGradient id="paint1_radial_346_445" cx="0" cy="0" r="1" gradientUnits="userSpaceOnUse" gradientTransform="translate(3.97428 9.406) rotate(-11.967) scale(2.93887 2.1161)">
<stop stop-color="#FFD150"/>
<stop offset="1" stop-color="#FFD150" stop-opacity="0"/>
</radialGradient>
<linearGradient id="paint2_linear_346_445" x1="12.0644" y1="23.952" x2="10.8604" y2="30.658" gradientUnits="userSpaceOnUse">
<stop stop-color="#D69946"/>
<stop offset="1" stop-color="#E99D23"/>
</linearGradient>
<linearGradient id="paint3_linear_346_445" x1="11.6304" y1="24.469" x2="11.0234" y2="27.844" gradientUnits="userSpaceOnUse">
<stop stop-color="#B87E33"/>
<stop offset="1" stop-color="#B87E33" stop-opacity="0"/>
</linearGradient>
<radialGradient id="paint4_radial_346_445" cx="0" cy="0" r="1" gradientUnits="userSpaceOnUse" gradientTransform="translate(12.8494 30) rotate(180) scale(2.15625 2.54664)">
<stop stop-color="#C67500"/>
<stop offset="1" stop-color="#C67500" stop-opacity="0"/>
</radialGradient>
<linearGradient id="paint5_linear_346_445" x1="11.0234" y1="30.719" x2="11.0234" y2="29.187" gradientUnits="userSpaceOnUse">
<stop stop-color="#F15CC7"/>
<stop offset="0.828" stop-color="#F15CC7" stop-opacity="0"/>
</linearGradient>
<linearGradient id="paint6_linear_346_445" x1="-nan" y1="-nan" x2="-nan" y2="-nan" gradientUnits="userSpaceOnUse">
<stop stop-color="#FDB65D"/>
<stop offset="1" stop-color="#FDB65D" stop-opacity="0"/>
</linearGradient>
<linearGradient id="paint7_linear_346_445" x1="17.1024" y1="23.952" x2="16.0674" y2="29.237" gradientUnits="userSpaceOnUse">
<stop stop-color="#D69946"/>
<stop offset="1" stop-color="#E99D23"/>
</linearGradient>
<linearGradient id="paint8_linear_346_445" x1="16.6654" y1="24.469" x2="16.0624" y2="27.845" gradientUnits="userSpaceOnUse">
<stop stop-color="#B87E33"/>
<stop offset="1" stop-color="#B87E33" stop-opacity="0"/>
</linearGradient>
<linearGradient id="paint9_linear_346_445" x1="16.0534" y1="30.719" x2="16.0534" y2="29.187" gradientUnits="userSpaceOnUse">
<stop stop-color="#F15CC7"/>
<stop offset="0.828" stop-color="#F15CC7" stop-opacity="0"/>
</linearGradient>
<radialGradient id="paint10_radial_346_445" cx="0" cy="0" r="1" gradientUnits="userSpaceOnUse" gradientTransform="translate(20.0694 29.531) rotate(-172.935) scale(2.03257 1.28496)">
<stop stop-color="#FFBD59"/>
<stop offset="1" stop-color="#FFBD59" stop-opacity="0"/>
</radialGradient>
<linearGradient id="paint11_linear_346_445" x1="-nan" y1="-nan" x2="-nan" y2="-nan" gradientUnits="userSpaceOnUse">
<stop stop-color="#FDB65D"/>
<stop offset="1" stop-color="#FDB65D" stop-opacity="0"/>
</linearGradient>
<linearGradient id="paint12_linear_346_445" x1="17.3242" y1="21.137" x2="28.4742" y2="21.137" gradientUnits="userSpaceOnUse">
<stop stop-color="#ED1C26"/>
<stop offset="1" stop-color="#EC098C"/>
</linearGradient>
<linearGradient id="paint13_linear_346_445" x1="20.3162" y1="27.875" x2="20.3162" y2="23.5" gradientUnits="userSpaceOnUse">
<stop offset="0.271" stop-color="#992E9B"/>
<stop offset="1" stop-color="#9F31A1" stop-opacity="0"/>
</linearGradient>
<linearGradient id="paint14_linear_346_445" x1="16.7242" y1="12.938" x2="19.7862" y2="19.701" gradientUnits="userSpaceOnUse">
<stop stop-color="#992E9B"/>
<stop offset="1" stop-color="#9F31A1" stop-opacity="0"/>
</linearGradient>
<linearGradient id="paint15_linear_346_445" x1="10.5078" y1="-2.928" x2="10.5078" y2="29.375" gradientUnits="userSpaceOnUse">
<stop stop-color="#ED1C26"/>
<stop offset="1" stop-color="#EC098C"/>
</linearGradient>
<linearGradient id="paint16_linear_346_445" x1="9.16084" y1="26.188" x2="9.16084" y2="17.75" gradientUnits="userSpaceOnUse">
<stop stop-color="#992E9B"/>
<stop offset="1" stop-color="#9F31A1" stop-opacity="0"/>
</linearGradient>
<radialGradient id="paint17_radial_346_445" cx="0" cy="0" r="1" gradientUnits="userSpaceOnUse" gradientTransform="translate(17.3478 20.1255) rotate(132.87) scale(4.60499 6.33279)">
<stop offset="0.525" stop-color="#BA2159"/>
<stop offset="1" stop-color="#BA2159" stop-opacity="0"/>
</radialGradient>
<linearGradient id="paint18_linear_346_445" x1="3.66083" y1="15.938" x2="8.84884" y2="15.938" gradientUnits="userSpaceOnUse">
<stop stop-color="#B2516B"/>
<stop offset="1" stop-color="#B2516B" stop-opacity="0"/>
</linearGradient>
<radialGradient id="paint19_radial_346_445" cx="0" cy="0" r="1" gradientUnits="userSpaceOnUse" gradientTransform="translate(23.8738 25) rotate(-124.025) scale(27.4117 18.7644)">
<stop offset="0.904" stop-color="#B2516B" stop-opacity="0"/>
<stop offset="1" stop-color="#B2516B"/>
</radialGradient>
<linearGradient id="paint20_linear_346_445" x1="18.5439" y1="22.125" x2="14.4199" y2="10.285" gradientUnits="userSpaceOnUse">
<stop stop-color="#EC098C"/>
<stop offset="1" stop-color="#ED1746"/>
</linearGradient>
<radialGradient id="paint21_radial_346_445" cx="0" cy="0" r="1" gradientUnits="userSpaceOnUse" gradientTransform="translate(10.1861 8.36201) rotate(125.838) scale(0.693863 0.61862)">
<stop offset="0.006" stop-color="#433437"/>
<stop offset="1" stop-color="#3B2838"/>
</radialGradient>
<radialGradient id="paint22_radial_346_445" cx="0" cy="0" r="1" gradientUnits="userSpaceOnUse" gradientTransform="translate(10.2241 8.39878) rotate(137.643) scale(0.35946 0.31624)">
<stop stop-color="#5C5051"/>
<stop offset="1" stop-color="#5C5051" stop-opacity="0"/>
</radialGradient>
<linearGradient id="paint23_linear_346_445" x1="9.93909" y1="8.13101" x2="9.59609" y2="7.91201" gradientUnits="userSpaceOnUse">
<stop stop-color="#5C5051" stop-opacity="0"/>
<stop offset="1" stop-color="#5C5051"/>
</linearGradient>
<linearGradient id="paint24_linear_346_445" x1="19.7241" y1="20.875" x2="15.8801" y2="2.56301" gradientUnits="userSpaceOnUse">
<stop stop-color="#FF589B"/>
<stop offset="1" stop-color="#FF589B" stop-opacity="0"/>
</linearGradient>
<linearGradient id="paint25_linear_346_445" x1="19.4274" y1="3.79401" x2="17.3954" y2="5.38701" gradientUnits="userSpaceOnUse">
<stop stop-color="#FFB3D1"/>
<stop offset="1" stop-color="#FFB3D1" stop-opacity="0"/>
</linearGradient>
<linearGradient id="paint26_linear_346_445" x1="17.2554" y1="5.02701" x2="16.5834" y2="6.17201" gradientUnits="userSpaceOnUse">
<stop stop-color="#A92E39"/>
<stop offset="1" stop-color="#A92E39" stop-opacity="0"/>
</linearGradient>
<linearGradient id="paint27_linear_346_445" x1="-nan" y1="-nan" x2="-nan" y2="-nan" gradientUnits="userSpaceOnUse">
<stop stop-color="#FF5CAB"/>
<stop offset="1" stop-color="#FF5CAB" stop-opacity="0"/>
</linearGradient>
</defs>
</svg>
