<svg width="33" height="34" viewBox="0 0 33 34" fill="none" xmlns="http://www.w3.org/2000/svg">
<path d="M26.125 4.625H6.875C4.93075 4.625 3.95863 4.625 3.355 5.1915C2.75 5.758 2.75 6.671 2.75 8.49563V9.44438C2.75 10.8703 2.75 11.5839 3.1075 12.1751C3.465 12.7664 4.11537 13.1349 5.42025 13.8691L9.42563 16.1241C10.3001 16.6164 10.7388 16.8625 11.0523 17.1347C11.704 17.6999 12.1055 18.3654 12.287 19.1835C12.375 19.574 12.375 20.0333 12.375 20.9504V24.6216C12.375 25.8715 12.375 26.4971 12.7215 26.9839C13.068 27.472 13.684 27.7126 14.9132 28.1939C17.4969 29.2031 18.788 29.7077 19.7065 29.133C20.625 28.5596 20.625 27.2465 20.625 24.6202V20.949C20.625 20.0332 20.625 19.574 20.713 19.1821C20.8857 18.3807 21.3207 17.6598 21.9491 17.1334C22.2613 16.8625 22.6999 16.6164 23.5744 16.1228L27.5798 13.8678C28.8833 13.1349 29.5364 12.7677 29.8925 12.1765C30.25 11.5852 30.25 10.8703 30.25 9.443V8.49425C30.25 6.671 30.25 5.758 29.645 5.1915C29.0427 4.625 28.0706 4.625 26.125 4.625Z" stroke="#2B546A" stroke-width="1.5"/>
</svg>
