<svg width="104" height="106" viewBox="0 0 104 106" fill="none" xmlns="http://www.w3.org/2000/svg">
<g clip-path="url(#clip0_220_3948)">
<path d="M46.5551 6.4176C37.5012 6.4176 28.6505 9.17776 21.1224 14.349C13.5943 19.5203 7.7268 26.8704 4.26199 35.4699C0.797178 44.0694 -0.109374 53.5321 1.65697 62.6613C3.42332 71.7904 7.78323 80.1761 14.1854 86.7579C20.5875 93.3397 28.7443 97.8219 37.6243 99.6379C46.5044 101.454 55.7087 100.522 64.0735 96.9597C72.4383 93.3977 79.5878 87.3656 84.618 79.6263C89.6481 71.8869 92.3329 62.7879 92.3329 53.4799C92.3329 40.9982 87.5099 29.0277 78.9249 20.2018C70.3399 11.3759 58.6962 6.4176 46.5551 6.4176ZM46.5551 94.6594C38.6329 94.6594 30.8886 92.2442 24.3015 87.7194C17.7144 83.1945 12.5803 76.7631 9.54863 69.2386C6.51692 61.714 5.72369 53.4342 7.26924 45.4462C8.8148 37.4581 12.6297 30.1206 18.2316 24.3616C23.8335 18.6025 30.9707 14.6806 38.7407 13.0916C46.5107 11.5027 54.5645 12.3182 61.8837 15.435C69.2029 18.5518 75.4588 23.8298 79.8601 30.6018C84.2615 37.3737 86.6107 45.3353 86.6107 53.4799C86.6107 64.4013 82.3906 74.8755 74.8787 82.5982C67.3668 90.3208 57.1785 94.6594 46.5551 94.6594Z" fill="black"/>
<path d="M38.3296 49.8029C41.4899 49.8029 44.0519 47.1691 44.0519 43.9201C44.0519 40.6712 41.4899 38.0374 38.3296 38.0374C35.1693 38.0374 32.6074 40.6712 32.6074 43.9201C32.6074 47.1691 35.1693 49.8029 38.3296 49.8029Z" fill="black"/>
<path d="M55.4957 49.8029C58.656 49.8029 61.2179 47.1691 61.2179 43.9201C61.2179 40.6712 58.656 38.0374 55.4957 38.0374C52.3354 38.0374 49.7734 40.6712 49.7734 43.9201C49.7734 47.1691 52.3354 49.8029 55.4957 49.8029Z" fill="black"/>
<path d="M47.2773 89.0001C50.2756 89.0105 53.1979 86.4991 55.6238 81.8271C58.0496 77.1551 59.854 70.5633 60.7773 63.0001H33.7773C34.7007 70.5633 36.5051 77.1551 38.9309 81.8271C41.3568 86.4991 44.279 89.0105 47.2773 89.0001Z" fill="black"/>
</g>
<defs>
<clipPath id="clip0_220_3948">
<rect width="103" height="105.89" fill="white" transform="translate(0.777344)"/>
</clipPath>
</defs>
</svg>
