<svg width="46" height="46" viewBox="0 0 46 46" fill="none" xmlns="http://www.w3.org/2000/svg">
<path d="M8.53054 26.6572L22.3154 39.6067C22.6398 39.9114 22.8021 40.0638 23.0001 40.0638C23.1981 40.0638 23.3603 39.9114 23.6848 39.6067L37.4696 26.6572C38.0745 26.089 38.3769 25.8049 38.6184 25.5387C41.3731 22.5024 41.7278 17.9882 39.481 14.559C39.284 14.2583 39.0296 13.9305 38.5209 13.2748L37.928 12.5106C37.6941 12.2092 37.5772 12.0584 37.4897 11.9533C33.8328 7.55868 26.8799 8.30742 24.2424 13.3799C24.1794 13.5012 24.0972 13.6734 23.9329 14.0177C23.9072 14.0714 23.8944 14.0982 23.8856 14.1149C23.5111 14.8289 22.489 14.8289 22.1145 14.1149C22.1057 14.0982 22.0929 14.0714 22.0673 14.0177L22.0672 14.0175C21.9029 13.6733 21.8208 13.5012 21.7577 13.3799C19.1203 8.30742 12.1674 7.55868 8.51047 11.9533C8.42301 12.0584 8.30607 12.2091 8.07221 12.5106L7.47928 13.2748C6.97055 13.9305 6.71618 14.2583 6.51921 14.559C4.2724 17.9882 4.62703 22.5024 7.38173 25.5387C7.62323 25.8049 7.92567 26.089 8.53054 26.6572Z" stroke="#33363F" stroke-width="2"/>
</svg>
