<svg width="91" height="92" viewBox="0 0 91 92" fill="none" xmlns="http://www.w3.org/2000/svg">
<path d="M87.374 45.9451C87.374 69.1381 68.762 87.882 45.874 87.882C22.986 87.882 4.37402 69.1381 4.37402 45.9451C4.37402 22.752 22.986 4.00818 45.874 4.00818C68.762 4.00818 87.374 22.752 87.374 45.9451Z" fill="#F7CC53" stroke="black" stroke-width="7"/>
<path d="M56.6613 38.0932C59.4504 38.0932 61.7113 35.877 61.7113 33.1432C61.7113 30.4094 59.4504 28.1932 56.6613 28.1932C53.8723 28.1932 51.6113 30.4094 51.6113 33.1432C51.6113 35.877 53.8723 38.0932 56.6613 38.0932Z" fill="black"/>
<path d="M36.05 37.9C38.839 37.9 41.1 35.6838 41.1 32.95C41.1 30.2162 38.839 28 36.05 28C33.261 28 31 30.2162 31 32.95C31 35.6838 33.261 37.9 36.05 37.9Z" fill="black"/>
<path d="M46.0846 50.5446C42.0597 50.5452 38.0933 51.489 34.516 53.2973C30.9388 55.1055 27.8544 57.7257 25.5199 60.9396C25.0883 61.534 24.9154 62.2721 25.039 62.9915C25.1626 63.711 25.5728 64.3528 26.1792 64.7758C26.7856 65.1988 27.5387 65.3684 28.2726 65.2472C29.0066 65.126 29.6614 64.724 30.093 64.1296C31.8868 61.6598 34.2505 59.6403 36.9914 58.2355C39.7323 56.8307 42.7729 56.0803 45.8657 56.0455C48.9585 56.0106 52.0159 56.6923 54.789 58.035C57.5621 59.3777 59.9725 61.3434 61.8238 63.7721C62.2702 64.3555 62.9349 64.7413 63.6715 64.8444C64.4081 64.9476 65.1563 64.7597 65.7516 64.3221C66.3468 63.8844 66.7404 63.233 66.8456 62.511C66.9508 61.7889 66.7591 61.0555 66.3127 60.4721C63.9608 57.3894 60.9078 54.887 57.3963 53.1636C53.8849 51.4403 50.0117 50.5435 46.0846 50.5446Z" fill="black"/>
</svg>
