<svg width="361" height="106" viewBox="0 0 361 106" fill="none" xmlns="http://www.w3.org/2000/svg">
<path d="M44.8889 8.94507C36.0107 8.94507 27.3319 11.5256 19.95 16.3604C12.568 21.1952 6.81452 28.067 3.41698 36.107C0.0194495 44.1469 -0.8695 52.9939 0.862548 61.529C2.5946 70.0642 6.86985 77.9042 13.1477 84.0577C19.4255 90.2113 27.4239 94.4019 36.1315 96.0996C44.8391 97.7973 53.8648 96.926 62.0671 93.5957C70.2695 90.2655 77.2802 84.6259 82.2127 77.3901C87.1451 70.1544 89.7778 61.6474 89.7778 52.9451C89.7778 41.2755 85.0484 30.084 76.6301 21.8324C68.2119 13.5808 56.7942 8.94507 44.8889 8.94507ZM44.8889 91.445C37.1205 91.445 29.5265 89.1871 23.0673 84.9566C16.6081 80.7262 11.5738 74.7133 8.60097 67.6784C5.62813 60.6434 4.8503 52.9023 6.36584 45.4341C7.88138 37.9658 11.6222 31.1058 17.1153 25.7215C22.6084 20.3371 29.6071 16.6704 37.2262 15.1848C44.8453 13.6993 52.7428 14.4617 59.9199 17.3757C67.0969 20.2897 73.2313 25.2243 77.5472 31.5556C81.8631 37.8869 84.1667 45.3305 84.1667 52.9451C84.1667 63.1559 80.0285 72.9485 72.6625 80.1687C65.2965 87.3888 55.306 91.445 44.8889 91.445Z" fill="black"/>
<path d="M56.05 47.8451C58.839 47.8451 61.1 45.6289 61.1 42.8951C61.1 40.1613 58.839 37.9451 56.05 37.9451C53.261 37.9451 51 40.1613 51 42.8951C51 45.6289 53.261 47.8451 56.05 47.8451Z" fill="black"/>
<path d="M35.4387 47.6518C38.2277 47.6518 40.4887 45.4356 40.4887 42.7018C40.4887 39.968 38.2277 37.7518 35.4387 37.7518C32.6496 37.7518 30.3887 39.968 30.3887 42.7018C30.3887 45.4356 32.6496 47.6518 35.4387 47.6518Z" fill="black"/>
<path d="M45.4733 60.2964C41.4484 60.2971 37.482 61.2409 33.9047 63.0491C30.3275 64.8573 27.243 67.4776 24.9086 70.6914C24.477 71.2858 24.304 72.0239 24.4277 72.7434C24.5513 73.4628 24.9615 74.1046 25.5679 74.5276C26.1743 74.9507 26.9273 75.1202 27.6613 74.999C28.3953 74.8778 29.0501 74.4758 29.4816 73.8814C31.2755 71.4116 33.6391 69.3921 36.38 67.9873C39.1209 66.5825 42.1616 65.8321 45.2544 65.7973C48.3471 65.7624 51.4046 66.4441 54.1777 67.7868C56.9508 69.1295 59.3612 71.0952 61.2125 73.5239C61.6589 74.1074 62.3236 74.4931 63.0602 74.5962C63.7968 74.6994 64.545 74.5115 65.1403 74.0739C65.7355 73.6363 66.129 72.9848 66.2343 72.2628C66.3395 71.5408 66.1478 70.8074 65.7014 70.2239C63.3495 67.1413 60.2965 64.6388 56.785 62.9155C53.2735 61.1921 49.4004 60.2953 45.4733 60.2964Z" fill="black"/>
<path d="M215.277 52.9451C215.277 76.1381 196.665 94.882 173.777 94.882C150.889 94.882 132.277 76.1381 132.277 52.9451C132.277 29.752 150.889 11.0082 173.777 11.0082C196.665 11.0082 215.277 29.752 215.277 52.9451Z" stroke="black" stroke-width="7"/>
<path d="M169.268 57.4014C171.705 57.4014 173.681 55.4258 173.681 52.9888C173.681 50.5518 171.705 48.5762 169.268 48.5762C166.831 48.5762 164.855 50.5518 164.855 52.9888C164.855 55.4258 166.831 57.4014 169.268 57.4014Z" fill="black"/>
<path d="M194.608 57.4014C197.045 57.4014 199.021 55.4258 199.021 52.9888C199.021 50.5518 197.045 48.5762 194.608 48.5762C192.171 48.5762 190.195 50.5518 190.195 52.9888C190.195 55.4258 192.171 57.4014 194.608 57.4014Z" fill="black"/>
<line x1="164.855" y1="69.6683" x2="195.438" y2="69.6683" stroke="black" stroke-width="5"/>
<g clip-path="url(#clip0_220_3936)">
<path d="M303.555 6.4176C294.501 6.4176 285.65 9.17776 278.122 14.349C270.594 19.5203 264.727 26.8704 261.262 35.4699C257.797 44.0694 256.891 53.5321 258.657 62.6613C260.423 71.7905 264.783 80.1761 271.185 86.7579C277.588 93.3397 285.744 97.8219 294.624 99.6379C303.504 101.454 312.709 100.522 321.074 96.9597C329.438 93.3977 336.588 87.3656 341.618 79.6263C346.648 71.8869 349.333 62.7879 349.333 53.4799C349.333 40.9982 344.51 29.0277 335.925 20.2018C327.34 11.3759 315.696 6.4176 303.555 6.4176ZM303.555 94.6594C295.633 94.6594 287.889 92.2442 281.301 87.7194C274.714 83.1945 269.58 76.7631 266.549 69.2386C263.517 61.714 262.724 53.4342 264.269 45.4462C265.815 37.4581 269.63 30.1206 275.232 24.3616C280.833 18.6025 287.971 14.6806 295.741 13.0916C303.511 11.5027 311.565 12.3182 318.884 15.435C326.203 18.5518 332.459 23.8298 336.86 30.6018C341.261 37.3737 343.611 45.3353 343.611 53.4799C343.611 64.4013 339.391 74.8755 331.879 82.5982C324.367 90.3208 314.179 94.6594 303.555 94.6594Z" fill="black"/>
<path d="M295.33 49.8029C298.49 49.8029 301.052 47.1691 301.052 43.9201C301.052 40.6712 298.49 38.0374 295.33 38.0374C292.169 38.0374 289.607 40.6712 289.607 43.9201C289.607 47.1691 292.169 49.8029 295.33 49.8029Z" fill="black"/>
<path d="M312.496 49.8029C315.656 49.8029 318.218 47.1691 318.218 43.9201C318.218 40.6712 315.656 38.0374 312.496 38.0374C309.335 38.0374 306.773 40.6712 306.773 43.9201C306.773 47.1691 309.335 49.8029 312.496 49.8029Z" fill="black"/>
<path d="M304.277 89.0001C307.276 89.0105 310.198 86.4991 312.624 81.8271C315.05 77.1551 316.854 70.5633 317.777 63.0001H290.777C291.701 70.5633 293.505 77.1551 295.931 81.8271C298.357 86.4991 301.279 89.0105 304.277 89.0001Z" fill="black"/>
</g>
<defs>
<clipPath id="clip0_220_3936">
<rect width="103" height="105.89" fill="white" transform="translate(257.777)"/>
</clipPath>
</defs>
</svg>
