<svg width="27" height="18" viewBox="0 0 27 18" fill="none" xmlns="http://www.w3.org/2000/svg">
<path d="M12.3661 12.1556C13.497 11.4028 14.3555 10.306 14.8148 9.02748C15.2741 7.74896 15.3097 6.35657 14.9165 5.05621C14.5232 3.75586 13.7219 2.61658 12.6311 1.80685C11.5403 0.997126 10.2178 0.559937 8.85929 0.559937C7.50077 0.559937 6.17832 0.997126 5.08749 1.80685C3.99666 2.61658 3.19536 3.75586 2.8021 5.05621C2.40884 6.35657 2.44449 7.74896 2.90378 9.02748C3.36307 10.306 4.22162 11.4028 5.35245 12.1556C3.30688 12.9096 1.55991 14.3047 0.37222 16.1329C0.309799 16.2256 0.266441 16.3299 0.244667 16.4396C0.222893 16.5492 0.223137 16.6622 0.245384 16.7717C0.267632 16.8813 0.311439 16.9854 0.37426 17.0779C0.437081 17.1704 0.517662 17.2495 0.61132 17.3106C0.704978 17.3717 0.809844 17.4135 0.919822 17.4337C1.0298 17.4539 1.1427 17.4521 1.25195 17.4283C1.36121 17.4044 1.46464 17.3592 1.55623 17.295C1.64783 17.2309 1.72576 17.1492 1.7855 17.0547C2.55162 15.8763 3.59994 14.9081 4.83527 14.2378C6.07061 13.5675 7.45382 13.2164 8.85929 13.2164C10.2648 13.2164 11.648 13.5675 12.8833 14.2378C14.1186 14.9081 15.167 15.8763 15.9331 17.0547C16.0568 17.2386 16.248 17.3664 16.4653 17.4105C16.6825 17.4546 16.9084 17.4115 17.0941 17.2904C17.2798 17.1692 17.4103 16.9799 17.4575 16.7633C17.5047 16.5467 17.4648 16.3203 17.3464 16.1329C16.1587 14.3047 14.4117 12.9096 12.3661 12.1556ZM4.21866 6.89063C4.21866 5.9728 4.49083 5.07558 5.00075 4.31244C5.51067 3.54929 6.23544 2.95449 7.0834 2.60325C7.93136 2.25201 8.86444 2.16011 9.76463 2.33917C10.6648 2.51823 11.4917 2.96021 12.1407 3.60921C12.7897 4.25821 13.2317 5.08509 13.4107 5.98529C13.5898 6.88548 13.4979 7.81856 13.1467 8.66652C12.7954 9.51448 12.2006 10.2392 11.4375 10.7492C10.6743 11.2591 9.77712 11.5313 8.85929 11.5313C7.62895 11.5299 6.4494 11.0405 5.57941 10.1705C4.70943 9.30052 4.22006 8.12097 4.21866 6.89063ZM26.3819 17.3004C26.1945 17.4226 25.9662 17.4654 25.7472 17.4193C25.5283 17.3732 25.3366 17.242 25.2143 17.0547C24.4491 15.8756 23.4009 14.9069 22.1654 14.2369C20.9298 13.5669 19.5461 13.2169 18.1405 13.2188C17.9168 13.2188 17.7022 13.1299 17.5439 12.9716C17.3857 12.8134 17.2968 12.5988 17.2968 12.375C17.2968 12.1512 17.3857 11.9366 17.5439 11.7784C17.7022 11.6201 17.9168 11.5313 18.1405 11.5313C18.8239 11.5306 19.4988 11.379 20.1168 11.0874C20.7348 10.7957 21.2808 10.3711 21.7157 9.84394C22.1507 9.31679 22.4638 8.70008 22.6327 8.03789C22.8017 7.3757 22.8223 6.68437 22.6931 6.01329C22.5639 5.3422 22.2881 4.70794 21.8853 4.15582C21.4826 3.6037 20.9629 3.14734 20.3633 2.81936C19.7637 2.49138 19.0991 2.29987 18.417 2.25851C17.7348 2.21715 17.052 2.32697 16.4172 2.58012C16.3137 2.62486 16.2023 2.64841 16.0895 2.64936C15.9768 2.65031 15.865 2.62866 15.7607 2.58567C15.6565 2.54268 15.5619 2.47924 15.4826 2.39908C15.4033 2.31893 15.3409 2.22369 15.299 2.119C15.2571 2.01431 15.2366 1.90228 15.2388 1.78955C15.2409 1.67681 15.2657 1.56565 15.3115 1.46263C15.3573 1.35961 15.4234 1.26682 15.5057 1.18975C15.588 1.11268 15.6849 1.05289 15.7907 1.01391C17.2435 0.434519 18.8594 0.413669 20.3266 0.955382C21.7939 1.4971 23.0086 2.56299 23.7363 3.94744C24.464 5.33188 24.6533 6.93678 24.2675 8.45253C23.8818 9.96828 22.9484 11.2875 21.6474 12.1556C23.693 12.9096 25.4399 14.3047 26.6276 16.1329C26.7498 16.3203 26.7926 16.5486 26.7465 16.7675C26.7004 16.9865 26.5693 17.1781 26.3819 17.3004Z" fill="black"/>
</svg>
