<svg width="35" height="35" viewBox="0 0 35 35" fill="none" xmlns="http://www.w3.org/2000/svg">
<path d="M17.4643 0.500001C7.81524 0.4961 0 8.30744 0 17.9487C0 25.5728 4.88891 32.0536 11.6975 34.4337C12.6144 34.6639 12.4739 34.0123 12.4739 33.5675V30.5436C7.17925 31.164 6.96465 27.6602 6.60959 27.0749C5.89167 25.8498 4.1944 25.5376 4.70163 24.9524C5.90727 24.332 7.13633 25.1084 8.56048 27.2115C9.59054 28.7371 11.6 28.4796 12.6183 28.226C12.8407 27.309 13.3167 26.4897 13.9722 25.8537C8.48634 24.8704 6.19991 21.5227 6.19991 17.5429C6.19991 15.6115 6.8359 13.8362 8.08446 12.4043C7.2885 10.0437 8.15859 8.02261 8.27565 7.72217C10.5426 7.51928 12.8992 9.34531 13.0826 9.48967C14.3702 9.14242 15.8412 8.95903 17.4877 8.95903C19.1421 8.95903 20.6169 9.15022 21.9162 9.50138C22.3571 9.16583 24.5421 7.59732 26.6491 7.7885C26.7622 8.08894 27.6128 10.0632 26.8637 12.3926C28.1278 13.8284 28.7716 15.6193 28.7716 17.5546C28.7716 21.5422 26.4696 24.8938 20.9681 25.8615C21.4393 26.3249 21.8135 26.8776 22.0687 27.4872C22.3239 28.0968 22.4552 28.7512 22.4547 29.4121V33.8016C22.4859 34.1527 22.4547 34.5 23.0399 34.5C29.95 32.1706 34.9247 25.643 34.9247 17.9526C34.9247 8.30744 27.1056 0.500001 17.4643 0.500001Z" fill="black"/>
</svg>
