<svg width="104" height="106" viewBox="0 0 104 106" fill="none" xmlns="http://www.w3.org/2000/svg">
<g clip-path="url(#clip0_220_3948)">
<path d="M87.5 53.4369C87.5 76.63 68.888 95.3738 46 95.3738C23.112 95.3738 4.5 76.63 4.5 53.4369C4.5 30.2438 23.112 11.5 46 11.5C68.888 11.5 87.5 30.2438 87.5 53.4369Z" fill="#F7CC53" stroke="black" stroke-width="7"/>
<path d="M38.4263 42.803C41.5866 42.803 44.1485 40.1692 44.1485 36.9203C44.1485 33.6713 41.5866 31.0375 38.4263 31.0375C35.266 31.0375 32.7041 33.6713 32.7041 36.9203C32.7041 40.1692 35.266 42.803 38.4263 42.803Z" fill="black"/>
<path d="M55.5933 42.803C58.7536 42.803 61.3155 40.1692 61.3155 36.9203C61.3155 33.6713 58.7536 31.0375 55.5933 31.0375C52.433 31.0375 49.8711 33.6713 49.8711 36.9203C49.8711 40.1692 52.433 42.803 55.5933 42.803Z" fill="black"/>
<path d="M47.374 82.0001C50.3723 82.0105 53.2946 79.4991 55.7204 74.8271C58.1463 70.1551 59.9507 63.5633 60.874 56.0001H33.874C34.7974 63.5633 36.6018 70.1551 39.0276 74.8271C41.4535 79.4991 44.3757 82.0105 47.374 82.0001Z" fill="black"/>
</g>
<defs>
<clipPath id="clip0_220_3948">
<rect width="103" height="105.89" fill="white" transform="translate(0.874023)"/>
</clipPath>
</defs>
</svg>
