<svg width="41" height="41" viewBox="0 0 41 41" fill="none" xmlns="http://www.w3.org/2000/svg">
<path d="M20.5003 14.9479C19.0278 14.9479 17.6156 15.5329 16.5744 16.5741C15.5332 17.6153 14.9482 19.0275 14.9482 20.5C14.9482 21.9725 15.5332 23.3847 16.5744 24.4259C17.6156 25.4672 19.0278 26.0521 20.5003 26.0521C21.9728 26.0521 23.385 25.4672 24.4262 24.4259C25.4675 23.3847 26.0524 21.9725 26.0524 20.5C26.0524 19.0275 25.4675 17.6153 24.4262 16.5741C23.385 15.5329 21.9728 14.9479 20.5003 14.9479Z" fill="black"/>
<path fill-rule="evenodd" clip-rule="evenodd" d="M11.5656 5.26509C17.5038 4.60687 23.4966 4.60687 29.4348 5.26509C32.6789 5.62726 35.2944 8.18122 35.6754 11.4373C36.3796 17.4586 36.3796 23.5414 35.6754 29.5627C35.2944 32.8188 32.6789 35.3728 29.4365 35.7366C23.4978 36.395 17.5044 36.395 11.5656 35.7366C8.32152 35.3728 5.70606 32.8188 5.3251 29.5644C4.6208 23.5426 4.6208 17.4592 5.3251 11.4373C5.70606 8.18122 8.32152 5.62726 11.5656 5.26509ZM29.0419 10.25C28.5888 10.25 28.1543 10.43 27.8339 10.7504C27.5135 11.0707 27.3336 11.5053 27.3336 11.9583C27.3336 12.4114 27.5135 12.8459 27.8339 13.1663C28.1543 13.4867 28.5888 13.6667 29.0419 13.6667C29.495 13.6667 29.9295 13.4867 30.2499 13.1663C30.5702 12.8459 30.7502 12.4114 30.7502 11.9583C30.7502 11.5053 30.5702 11.0707 30.2499 10.7504C29.9295 10.43 29.495 10.25 29.0419 10.25ZM12.3856 20.5C12.3856 18.3479 13.2406 16.2839 14.7624 14.7621C16.2841 13.2404 18.3481 12.3854 20.5002 12.3854C22.6523 12.3854 24.7163 13.2404 26.2381 14.7621C27.7599 16.2839 28.6148 18.3479 28.6148 20.5C28.6148 22.6521 27.7599 24.7161 26.2381 26.2379C24.7163 27.7597 22.6523 28.6146 20.5002 28.6146C18.3481 28.6146 16.2841 27.7597 14.7624 26.2379C13.2406 24.7161 12.3856 22.6521 12.3856 20.5Z" fill="black"/>
</svg>
