<svg width="91" height="92" viewBox="0 0 91 92" fill="none" xmlns="http://www.w3.org/2000/svg">
<path d="M87.2773 45.9451C87.2773 69.1381 68.6654 87.882 45.7773 87.882C22.8893 87.882 4.27734 69.1381 4.27734 45.9451C4.27734 22.752 22.8893 4.00818 45.7773 4.00818C68.6654 4.00818 87.2773 22.752 87.2773 45.9451Z" stroke="black" stroke-width="7"/>
<path d="M41.2681 50.4014C43.7051 50.4014 45.6807 48.4258 45.6807 45.9888C45.6807 43.5518 43.7051 41.5762 41.2681 41.5762C38.8311 41.5762 36.8555 43.5518 36.8555 45.9888C36.8555 48.4258 38.8311 50.4014 41.2681 50.4014Z" fill="black"/>
<path d="M66.6079 50.4014C69.045 50.4014 71.0206 48.4258 71.0206 45.9888C71.0206 43.5518 69.045 41.5762 66.6079 41.5762C64.1709 41.5762 62.1953 43.5518 62.1953 45.9888C62.1953 48.4258 64.1709 50.4014 66.6079 50.4014Z" fill="black"/>
<line x1="36.8555" y1="62.6683" x2="67.438" y2="62.6683" stroke="black" stroke-width="5"/>
</svg>
