<svg width="91" height="92" viewBox="0 0 91 92" fill="none" xmlns="http://www.w3.org/2000/svg">
<path d="M87.374 45.9451C87.374 69.1381 68.762 87.882 45.874 87.882C22.986 87.882 4.37402 69.1381 4.37402 45.9451C4.37402 22.752 22.986 4.00818 45.874 4.00818C68.762 4.00818 87.374 22.752 87.374 45.9451Z" fill="#F7CC53" stroke="black" stroke-width="7"/>
<path d="M41.3648 50.4014C43.8018 50.4014 45.7774 48.4258 45.7774 45.9888C45.7774 43.5518 43.8018 41.5762 41.3648 41.5762C38.9277 41.5762 36.9521 43.5518 36.9521 45.9888C36.9521 48.4258 38.9277 50.4014 41.3648 50.4014Z" fill="black"/>
<path d="M66.7036 50.4014C69.1407 50.4014 71.1163 48.4258 71.1163 45.9888C71.1163 43.5518 69.1407 41.5762 66.7036 41.5762C64.2666 41.5762 62.291 43.5518 62.291 45.9888C62.291 48.4258 64.2666 50.4014 66.7036 50.4014Z" fill="black"/>
<line x1="36.9521" y1="62.6683" x2="67.5347" y2="62.6683" stroke="black" stroke-width="5"/>
</svg>
