<svg width="90" height="89" viewBox="0 0 90 89" fill="none" xmlns="http://www.w3.org/2000/svg">
<path d="M44.8889 0.945068C36.0107 0.945068 27.3319 3.52562 19.95 8.3604C12.568 13.1952 6.81452 20.067 3.41698 28.107C0.0194495 36.1469 -0.8695 44.9939 0.862548 53.529C2.5946 62.0642 6.86985 69.9042 13.1477 76.0577C19.4255 82.2113 27.4239 86.4019 36.1315 88.0996C44.8391 89.7974 53.8648 88.926 62.0671 85.5957C70.2695 82.2655 77.2802 76.6259 82.2127 69.3901C87.1451 62.1544 89.7778 53.6474 89.7778 44.9451C89.7778 33.2755 85.0485 22.084 76.6302 13.8324C68.2119 5.58077 56.7942 0.945068 44.8889 0.945068ZM44.8889 83.445C37.1205 83.445 29.5265 81.1871 23.0673 76.9566C16.6081 72.7262 11.5738 66.7133 8.60097 59.6784C5.62813 52.6434 4.8503 44.9023 6.36584 37.4341C7.88138 29.9658 11.6222 23.1058 17.1153 17.7215C22.6084 12.3371 29.6071 8.67036 37.2262 7.18483C44.8453 5.6993 52.7428 6.46173 59.9199 9.3757C67.0969 12.2897 73.2313 17.2243 77.5472 23.5556C81.8631 29.8869 84.1667 37.3305 84.1667 44.9451C84.1667 55.1559 80.0285 64.9485 72.6625 72.1687C65.2965 79.3888 55.306 83.445 44.8889 83.445Z" fill="black"/>
<path d="M56.05 39.8451C58.839 39.8451 61.1 37.6289 61.1 34.8951C61.1 32.1613 58.839 29.9451 56.05 29.9451C53.261 29.9451 51 32.1613 51 34.8951C51 37.6289 53.261 39.8451 56.05 39.8451Z" fill="black"/>
<path d="M35.4387 39.6518C38.2277 39.6518 40.4887 37.4356 40.4887 34.7018C40.4887 31.968 38.2277 29.7518 35.4387 29.7518C32.6496 29.7518 30.3887 31.968 30.3887 34.7018C30.3887 37.4356 32.6496 39.6518 35.4387 39.6518Z" fill="black"/>
<path d="M45.4733 52.2964C41.4484 52.2971 37.482 53.2409 33.9047 55.0491C30.3275 56.8573 27.243 59.4776 24.9086 62.6914C24.477 63.2858 24.304 64.0239 24.4277 64.7434C24.5513 65.4628 24.9615 66.1046 25.5679 66.5276C26.1743 66.9507 26.9273 67.1202 27.6613 66.999C28.3953 66.8778 29.0501 66.4758 29.4816 65.8814C31.2755 63.4116 33.6391 61.3921 36.38 59.9873C39.1209 58.5825 42.1616 57.8321 45.2544 57.7973C48.3471 57.7624 51.4046 58.4441 54.1777 59.7868C56.9508 61.1295 59.3612 63.0952 61.2125 65.5239C61.6589 66.1074 62.3236 66.4931 63.0602 66.5962C63.7968 66.6994 64.545 66.5115 65.1403 66.0739C65.7355 65.6363 66.129 64.9848 66.2343 64.2628C66.3395 63.5408 66.1478 62.8074 65.7014 62.2239C63.3495 59.1413 60.2965 56.6388 56.785 54.9155C53.2735 53.1921 49.4004 52.2953 45.4733 52.2964Z" fill="black"/>
</svg>
