<svg width="40" height="40" viewBox="0 0 40 40" fill="none" xmlns="http://www.w3.org/2000/svg">
<path d="M13.5333 24.5167L19.9999 18.05L26.4666 24.5167C26.6209 24.671 26.8041 24.7934 27.0057 24.8769C27.2073 24.9604 27.4234 25.0034 27.6416 25.0034C27.8598 25.0034 28.0759 24.9604 28.2775 24.8769C28.4791 24.7934 28.6623 24.671 28.8166 24.5167C28.9709 24.3624 29.0933 24.1792 29.1768 23.9776C29.2603 23.776 29.3033 23.5599 29.3033 23.3417C29.3033 23.1235 29.2603 22.9074 29.1768 22.7058C29.0933 22.5042 28.9709 22.321 28.8166 22.1667L21.1666 14.5167C21.0124 14.3622 20.8293 14.2396 20.6276 14.156C20.426 14.0723 20.2099 14.0293 19.9916 14.0293C19.7733 14.0293 19.5572 14.0723 19.3556 14.156C19.1539 14.2396 18.9708 14.3622 18.8166 14.5167L11.1666 22.1667C11.0121 22.3209 10.8895 22.504 10.8059 22.7057C10.7222 22.9073 10.6792 23.1234 10.6792 23.3417C10.6792 23.56 10.7222 23.7761 10.8059 23.9777C10.8895 24.1794 11.0121 24.3625 11.1666 24.5167C11.8166 25.15 12.8833 25.1667 13.5333 24.5167Z" fill="black"/>
</svg>
