<svg width="41" height="41" viewBox="0 0 41 41" fill="none" xmlns="http://www.w3.org/2000/svg">
<g clip-path="url(#clip0_220_2460)">
<path d="M24.016 5.82541C20.929 7.1357 18.8995 10.016 18.7953 13.3079L18.7919 13.6188L18.3768 13.5795C14.2904 13.12 10.6927 10.9965 8.22243 7.54741C8.05516 7.31365 7.83161 7.12588 7.57248 7.00148C7.31335 6.87708 7.02702 6.82008 6.74001 6.83575C6.453 6.85142 6.17458 6.93926 5.93053 7.09113C5.68649 7.243 5.48471 7.454 5.34388 7.70458L5.17818 8.02233L5.09447 8.19145C3.86618 10.7283 3.06155 13.8119 3.35709 17.0799L3.40834 17.5463C3.8918 21.4122 5.97084 24.7469 9.86414 27.2479L10.1597 27.4307L10.0213 27.5042C7.77484 28.6368 5.71972 29.1305 3.48351 29.0417C1.67951 28.9733 1.01326 31.3855 2.59859 32.2499C8.74518 35.6 15.3445 36.6335 21.0349 34.9832C27.9708 32.9674 33.2529 27.769 35.2739 20.5769L35.4908 19.7312C35.8974 18.0349 36.1263 16.3043 36.1759 14.5652L36.181 13.9981L36.8524 12.6673L37.6041 11.1947L37.9696 10.4533L38.1712 10.0313C38.6239 9.06612 38.9502 8.26662 39.1518 7.58841L39.1757 7.49274L39.1894 7.46199C39.5652 6.44895 38.9058 5.14208 37.5818 5.14208L37.3734 5.15403C37.2385 5.17062 37.106 5.20332 36.9788 5.25141L36.8319 5.31633C36.3444 5.55308 35.8422 5.7585 35.3286 5.93133L34.7204 6.12778L34.2574 6.26445L32.9386 6.63003C30.6563 4.72012 27.5676 4.48778 24.3764 5.68362L24.016 5.82541Z" fill="black"/>
</g>
<defs>
<clipPath id="clip0_220_2460">
<rect width="41" height="41" fill="white"/>
</clipPath>
</defs>
</svg>
